<?xml version="1.0" standalone="no"?>
<!DOCTYPE svg PUBLIC "-//W3C//DTD SVG 20010904//EN"
 "http://www.w3.org/TR/2001/REC-SVG-20010904/DTD/svg10.dtd">
<svg version="1.0" xmlns="http://www.w3.org/2000/svg"
 width="500.000000pt" height="500.000000pt" viewBox="0 0 500.000000 500.000000"
 preserveAspectRatio="xMidYMid meet">
<metadata>
Created by potrace 1.14, written by Peter Selinger 2001-2017
</metadata>
<g transform="translate(0.000000,500.000000) scale(0.100000,-0.100000)"
fill="#000000" stroke="none">
<path d="M2245 4989 c-759 -91 -1387 -468 -1818 -1091 -26 -38 -47 -71 -47
-75 0 -3 -6 -14 -14 -22 -34 -39 -135 -241 -190 -377 -65 -165 -133 -417 -150
-559 -4 -27 -10 -77 -14 -110 -9 -77 -9 -419 1 -510 20 -192 51 -336 114 -530
33 -103 134 -346 154 -371 5 -6 23 -37 40 -70 164 -308 495 -662 804 -862 278
-180 614 -317 895 -366 19 -3 46 -8 60 -11 14 -3 45 -8 70 -11 25 -3 56 -7 70
-10 14 -3 115 -7 225 -9 207 -4 355 6 475 30 14 3 41 8 60 11 19 3 71 14 115
25 604 150 1123 511 1478 1032 37 54 67 100 67 103 0 2 12 23 26 46 129 205
254 554 305 858 31 181 33 584 4 740 -2 14 -9 57 -15 95 -57 365 -239 768
-498 1105 -90 116 -316 339 -437 430 -55 41 -101 78 -103 83 -2 4 -8 7 -13 7
-6 0 -36 17 -67 38 -257 174 -688 334 -987 368 -33 3 -69 8 -80 11 -37 9 -459
10 -530 2z"/>
</g>
</svg>
